<svg width="86" height="73" viewBox="0 0 86 73" fill="none" xmlns="http://www.w3.org/2000/svg">
<path d="M24.12 30.5C22.56 29.94 20.94 29.58 19.26 29.42C17.66 29.22 16.02 29.04 14.34 28.88C15.86 29.12 17.42 29.34 19.02 29.54C20.7 29.74 22.28 30.18 23.76 30.86C23.6 31.02 23.44 31.16 23.28 31.28C23.12 31.4 22.96 31.46 22.8 31.46C22.24 31.46 21.7 31.4 21.18 31.28C20.66 31.12 20.1 31.04 19.5 31.04V30.32C19.3 30.36 19.02 30.38 18.66 30.38C17.66 30.38 16.68 30.24 15.72 29.96C14.76 29.68 13.78 29.54 12.78 29.54C12.26 29.54 11.76 29.6 11.28 29.72V29.96C12.56 30.04 13.86 30.18 15.18 30.38C16.54 30.54 17.92 30.76 19.32 31.04C18.04 30.84 16.66 30.66 15.18 30.5C13.74 30.34 12.38 30.26 11.1 30.26C10.58 30.26 10.08 30.28 9.6 30.32C9.16 30.32 8.72 30.34 8.28 30.38C8.28 31.22 8.3 32.2 8.34 33.32C8.38 34.44 8.46 35.54 8.58 36.62C8.7 37.66 8.84 38.58 9 39.38C9.16 40.18 9.36 40.7 9.6 40.94L10.14 42.02C10.62 43.5 12.22 44.24 14.94 44.24C15.54 44.24 16.26 44.16 17.1 44C17.94 43.84 18.78 43.66 19.62 43.46C20.5 43.22 21.32 43.02 22.08 42.86C22.88 42.7 23.56 42.62 24.12 42.62C24.68 42.62 25 42.7 25.08 42.86C25.16 43.02 25.2 43.24 25.2 43.52C23.52 43.72 21.9 44.02 20.34 44.42C18.98 44.78 17.66 45.06 16.38 45.26C17.66 45.06 18.96 44.82 20.28 44.54C21.84 44.18 23.42 43.9 25.02 43.7C24.94 43.94 24.9 44.1 24.9 44.18C24.9 44.42 25 44.62 25.2 44.78L26.04 44.66C26.28 44.62 26.52 44.6 26.76 44.6C27 44.56 27.22 44.5 27.42 44.42C28.14 44.62 28.64 44.84 28.92 45.08C29.24 45.32 29.4 45.58 29.4 45.86C29.4 46.38 29.14 46.74 28.62 46.94C28.14 47.14 27.68 47.46 27.24 47.9H27C25.84 47.9 24.72 48 23.64 48.2C22.56 48.36 21.48 48.54 20.4 48.74C19.36 48.94 18.28 49.14 17.16 49.34C16.08 49.5 14.96 49.58 13.8 49.58H12.96H12.6C13.36 49.66 14.18 49.7 15.06 49.7C16.18 49.7 17.22 49.64 18.18 49.52C19.18 49.4 20.14 49.26 21.06 49.1C21.98 48.94 22.86 48.8 23.7 48.68C24.58 48.56 25.46 48.5 26.34 48.5C25.7 48.82 24.92 49.14 24 49.46C23.08 49.74 22.06 49.98 20.94 50.18C19.82 50.42 18.66 50.6 17.46 50.72C16.26 50.88 15.08 50.96 13.92 50.96C13.12 50.96 12.34 50.92 11.58 50.84C10.82 50.76 10 50.5 9.12 50.06L9.06 49.4C8.5 49.2 7.9 48.84 7.26 48.32C6.66 47.76 6.1 47.18 5.58 46.58C5.06 45.98 4.62 45.42 4.26 44.9C3.9 44.38 3.72 44.04 3.72 43.88L3.54 43.34C3.18 42.58 2.88 41.74 2.64 40.82C2.44 39.9 2.28 38.98 2.16 38.06C2.04 37.1 1.94 36.16 1.86 35.24C1.78 34.32 1.72 33.46 1.68 32.66C1.6 31.34 1.54 30.02 1.5 28.7C1.46 27.34 1.44 25.98 1.44 24.62C1.44 23.26 1.44 21.9 1.44 20.54C1.48 19.14 1.5 17.74 1.5 16.34H1.32C1.12 17.86 1 19.32 0.96 20.72C0.96 22.12 0.96 23.52 0.96 24.92V27.26C0.96 30.06 1.1 32.98 1.38 36.02C1.7 39.06 2.48 42.02 3.72 44.9C2.8 43.34 2.22 41.8 1.98 40.28C1.74 38.72 1.52 37.28 1.32 35.96C1.08 34.24 0.9 32.58 0.78 30.98C0.7 29.38 0.66 27.74 0.66 26.06V24.8C0.66 22.48 0.72 20.12 0.84 17.72C0.96 15.32 1.32 12.78 1.92 10.1C1.68 10.1 1.56 9.98 1.56 9.74C1.56 9.5 1.68 9.16 1.92 8.72C2.2 8.28 2.54 7.86 2.94 7.46C3.34 7.02 3.78 6.66 4.26 6.38C4.78 6.06 5.28 5.9 5.76 5.9H20.04C21.52 6.18 22.96 6.42 24.36 6.62C25.8 6.78 27.3 6.9 28.86 6.98L28.8 8.36C28.8 8.6 28.68 8.8 28.44 8.96C28.24 9.08 27.76 9.14 27 9.14C26.76 9.14 26.46 9.14 26.1 9.14C25.78 9.1 25.42 9.06 25.02 9.02V9.56C26.66 9.92 27.94 10.36 28.86 10.88C29.82 11.4 30.3 11.9 30.3 12.38C30.3 12.94 29.76 13.28 28.68 13.4C27.64 13.52 26.24 13.58 24.48 13.58C22.24 13.58 19.84 13.58 17.28 13.58C14.76 13.54 12.32 13.42 9.96 13.22H8.94C8.74 14.74 8.6 16.3 8.52 17.9C8.44 19.5 8.38 21.14 8.34 22.82C8.98 22.82 9.6 22.8 10.2 22.76C10.84 22.68 11.5 22.64 12.18 22.64C12.74 22.64 13.38 22.7 14.1 22.82C14.86 22.9 15.64 23.02 16.44 23.18C17.28 23.34 18.1 23.54 18.9 23.78C19.74 23.98 20.5 24.2 21.18 24.44C21.3 24.48 21.44 24.5 21.6 24.5H22.62C23.14 24.5 23.48 24.58 23.64 24.74C23.84 24.9 23.94 25.22 23.94 25.7C23.26 25.7 22.62 25.66 22.02 25.58C21.42 25.5 20.84 25.42 20.28 25.34C20.84 25.54 21.42 25.7 22.02 25.82C22.62 25.9 23.26 25.98 23.94 26.06C23.86 26.26 23.8 26.44 23.76 26.6C23.76 26.76 23.76 26.9 23.76 27.02C24.16 27.1 24.42 27.3 24.54 27.62C24.7 27.9 24.78 28.22 24.78 28.58C24.78 29.1 24.66 29.52 24.42 29.84C24.22 30.12 24.12 30.34 24.12 30.5ZM3 37.28C3.16 38.24 3.34 39.28 3.54 40.4C3.78 41.48 4.12 42.56 4.56 43.64C5.04 44.68 5.68 45.66 6.48 46.58C7.12 47.34 7.96 47.98 9 48.5C7.8 47.86 6.82 46.98 6.06 45.86C5.18 44.5 4.48 42.98 3.96 41.3C3.48 39.62 3.12 37.84 2.88 35.96C2.68 34.08 2.52 32.28 2.4 30.56C2.44 31.64 2.5 32.74 2.58 33.86C2.66 34.98 2.8 36.12 3 37.28ZM17.7 25.04C18.38 25.16 19.1 25.26 19.86 25.34C19.14 25.14 18.46 25 17.82 24.92C17.18 24.8 16.54 24.66 15.9 24.5C16.42 24.74 17.02 24.92 17.7 25.04ZM7.86 49.64C7.34 49.4 6.88 49.12 6.48 48.8C6.2 48.56 5.94 48.32 5.7 48.08C5.94 48.32 6.22 48.54 6.54 48.74C6.98 49.06 7.42 49.36 7.86 49.64ZM9.66 48.8L9.12 48.56L9.66 48.8ZM50.4117 44.9C50.1717 44.9 49.9317 45.02 49.6917 45.26C48.8517 45.58 47.9717 45.86 47.0517 46.1C46.1717 46.3 45.2517 46.4 44.2917 46.4C41.5717 46.4 39.5317 45.62 38.1717 44.06C36.8117 42.46 36.1317 40.16 36.1317 37.16C36.1317 35.72 36.1917 34.28 36.3117 32.84C36.4317 31.44 36.5117 30.14 36.5517 28.94C36.4317 30.18 36.2917 31.42 36.1317 32.66C35.9317 33.98 35.8317 35.36 35.8317 36.8C35.8317 37.52 35.8917 38.44 36.0117 39.56C36.1717 40.68 36.5317 41.78 37.0917 42.86C37.6517 43.9 38.5117 44.82 39.6717 45.62C40.8317 46.38 42.4317 46.76 44.4717 46.76C45.4317 46.76 46.3517 46.66 47.2317 46.46C48.1517 46.22 49.0317 45.94 49.8717 45.62C49.3117 46.3 48.5517 46.84 47.5917 47.24C46.6717 47.64 45.5717 47.84 44.2917 47.84C42.6517 47.84 41.0517 47.5 39.4917 46.82C37.9717 46.14 36.8117 45 36.0117 43.4L36.3717 42.74C35.6517 41.46 35.2517 40.32 35.1717 39.32C35.0917 38.28 35.0117 37.26 34.9317 36.26L35.9517 25.76C36.1517 23.96 36.2917 22.16 36.3717 20.36L36.1917 20.24C35.8717 22.12 35.6117 23.92 35.4117 25.64C35.2117 27.32 35.0517 28.98 34.9317 30.62V29.06C35.1717 27.22 35.3917 25.42 35.5917 23.66C35.7917 21.86 36.0517 20.04 36.3717 18.2C36.6917 16.36 37.0917 14.44 37.5717 12.44C38.0917 10.44 38.7717 8.3 39.6117 6.02C40.7317 4.5 41.3917 3 41.5917 1.52C41.7117 1.52 41.8317 1.54 41.9517 1.58C42.0717 1.62 42.3117 1.64 42.6717 1.64C42.9117 1.64 43.1117 1.7 43.2717 1.82C43.4717 1.9 43.5717 2.1 43.5717 2.42C43.5717 2.78 43.4517 3.32 43.2117 4.04C43.2917 4.04 43.4117 4.08 43.5717 4.16C43.7317 4.2 43.8517 4.22 43.9317 4.22C44.4917 3.26 44.9917 2.44 45.4317 1.76C45.9117 1.08 46.3717 0.739998 46.8117 0.739998C47.0917 0.739998 47.3317 0.919998 47.5317 1.28C47.7717 1.6 47.8917 2.14 47.8917 2.9C47.8117 4.34 47.5717 5.7 47.1717 6.98C46.8117 8.26 46.4117 9.5 45.9717 10.7C45.5317 11.9 45.0917 13.12 44.6517 14.36C44.2517 15.6 43.9517 16.9 43.7517 18.26C43.5117 19.82 43.2717 21.42 43.0317 23.06C42.7917 24.66 42.5717 26.26 42.3717 27.86C42.1717 29.46 41.9717 31 41.7717 32.48C41.6117 33.96 41.4917 35.34 41.4117 36.62C41.4117 37.78 41.5917 38.98 41.9517 40.22C42.1517 40.54 42.3317 40.78 42.4917 40.94C42.6517 41.06 42.9317 41.12 43.3317 41.12C43.8117 41.12 44.3317 41.06 44.8917 40.94C45.4917 40.82 46.0117 40.76 46.4517 40.76C46.7317 40.76 46.9317 40.8 47.0517 40.88C47.1717 40.96 47.2717 41.1 47.3517 41.3C46.7917 41.62 46.1917 41.86 45.5517 42.02C44.9117 42.18 44.3117 42.26 43.7517 42.26H42.9117C42.7517 42.26 42.6117 42.26 42.4917 42.26C42.9317 42.34 43.4917 42.38 44.1717 42.38C45.2117 42.38 46.2717 42.14 47.3517 41.66C47.3517 42.02 47.4717 42.32 47.7117 42.56C47.8317 42.52 48.1117 42.38 48.5517 42.14C48.9917 41.9 49.3717 41.78 49.6917 41.78C50.6517 41.78 51.1317 42.18 51.1317 42.98C51.1317 43.1 51.0917 43.28 51.0117 43.52C50.9317 43.76 50.7317 44.22 50.4117 44.9ZM34.5117 36.86C34.5117 36.58 34.5117 36.22 34.5117 35.78C34.5517 35.34 34.5917 34.9 34.6317 34.46L34.7517 33.08C34.7917 32.6 34.8317 32.18 34.8717 31.82C34.8317 32.42 34.7917 33.18 34.7517 34.1C34.7517 34.98 34.7517 35.64 34.7517 36.08V38.48C34.7517 38.8 34.7517 39.14 34.7517 39.5C34.7917 39.86 34.8317 40.2 34.8717 40.52C34.7117 39.88 34.6117 39.26 34.5717 38.66C34.5317 38.02 34.5117 37.42 34.5117 36.86ZM40.3917 36.62C40.3917 35.7 40.4517 34.8 40.5717 33.92C40.6917 33.04 40.7917 32.14 40.8717 31.22C40.6717 32.14 40.5117 33.04 40.3917 33.92C40.3117 34.8 40.2317 35.7 40.1517 36.62V37.46C40.1517 37.74 40.1717 38.04 40.2117 38.36V37.94C40.2117 37.74 40.2317 37.52 40.2717 37.28C40.3117 37.04 40.3517 36.82 40.3917 36.62ZM34.8717 31.76C34.8717 31.68 34.8717 31.62 34.8717 31.58C34.9117 31.54 34.9317 31.5 34.9317 31.46C34.9317 31.62 34.9117 31.72 34.8717 31.76ZM54.8325 66.14C55.1525 66.46 55.6925 66.7 56.4525 66.86C57.2525 67.06 58.0125 67.16 58.7325 67.16C60.0525 67.16 61.3125 66.72 62.5125 65.84C63.7125 65 64.8525 63.84 65.9325 62.36C67.0525 60.88 68.1125 59.18 69.1125 57.26C70.1125 55.34 71.0725 53.32 71.9925 51.2H71.9325C71.1325 52.96 70.2725 54.76 69.3525 56.6C68.4325 58.48 67.4325 60.18 66.3525 61.7C65.2725 63.26 64.0925 64.52 62.8125 65.48C61.5725 66.48 60.2325 66.98 58.7925 66.98C57.6325 66.98 56.4925 66.64 55.3725 65.96C55.9725 65.76 56.5325 65.66 57.0525 65.66C57.2125 65.66 57.4925 65.7 57.8925 65.78C58.5325 65.78 59.0725 65.76 59.5125 65.72C59.9525 65.68 60.3725 65.58 60.7725 65.42C61.1725 65.3 61.5525 65.08 61.9125 64.76C62.2725 64.48 62.6725 64.1 63.1125 63.62L63.8325 63.8C64.9925 62.28 66.0725 60.64 67.0725 58.88C68.1125 57.12 69.1325 55.34 70.1325 53.54L71.2125 51.14L70.6725 51.02L69.7725 53.18C68.8525 54.98 67.8925 56.74 66.8925 58.46C65.8925 60.22 64.7525 61.82 63.4725 63.26C64.8725 61.54 66.1525 59.62 67.3125 57.5C68.4725 55.38 69.5325 53.18 70.4925 50.9L70.1325 50.3C69.9325 49.38 69.6325 48.48 69.2325 47.6C68.9525 46.92 68.6325 46.22 68.2725 45.5C68.9925 47.22 69.4925 48.88 69.7725 50.48C69.3725 50.36 69.0325 50.12 68.7525 49.76C68.5125 49.36 68.2725 48.9 68.0325 48.38C67.8325 47.86 67.6325 47.32 67.4325 46.76C67.2725 46.2 67.0525 45.64 66.7725 45.08L67.0725 44.54C66.4325 43.54 65.7325 42.3 64.9725 40.82C64.2525 39.34 63.4725 37.82 62.6325 36.26C61.8325 34.7 61.0125 33.18 60.1725 31.7C59.3325 30.22 58.5125 28.98 57.7125 27.98L57.5325 28.16L65.0325 41.66C63.5125 39.1 61.8925 36.5 60.1725 33.86C58.4525 31.22 56.9125 28.3 55.5525 25.1C55.5525 24.82 55.5125 24.46 55.4325 24.02C55.3525 23.54 55.2525 23.06 55.1325 22.58C55.0525 22.06 54.9525 21.56 54.8325 21.08C54.7125 20.56 54.5925 20.1 54.4725 19.7L56.0325 19.22C56.2325 19.22 56.4125 19.32 56.5725 19.52C56.7325 19.68 56.8725 20.04 56.9925 20.6C57.1925 20.6 57.3725 20.44 57.5325 20.12C57.6925 19.8 57.8525 19.44 58.0125 19.04C58.2125 18.64 58.4125 18.28 58.6125 17.96C58.8525 17.64 59.1525 17.48 59.5125 17.48C60.0325 17.48 60.4925 17.84 60.8925 18.56C61.3325 19.24 61.7325 20.08 62.0925 21.08C62.4925 22.08 62.9125 23.14 63.3525 24.26C63.7925 25.34 64.3125 26.28 64.9125 27.08C65.5525 28.16 66.1925 29.22 66.8325 30.26C67.5125 31.3 68.1325 32.4 68.6925 33.56C69.2925 35.16 70.0725 36.78 71.0325 38.42C71.9925 40.02 72.7525 41.7 73.3125 43.46C74.2725 40.26 75.0325 37.42 75.5925 34.94C76.1925 32.42 76.6525 29.92 76.9725 27.44C77.4125 26.16 77.7925 24.72 78.1125 23.12C78.4325 21.52 78.5925 19.96 78.5925 18.44L79.9125 18.5C80.1125 18.5 80.2925 18.6 80.4525 18.8C80.6125 18.96 80.6925 19.38 80.6925 20.06C80.6925 20.26 80.6725 20.48 80.6325 20.72C80.6325 20.92 80.6125 21.18 80.5725 21.5H81.1125C81.4725 20.18 81.8925 19.12 82.3725 18.32C82.8525 17.52 83.3125 17.12 83.7525 17.12C84.0725 17.12 84.3725 17.46 84.6525 18.14C84.9725 18.82 85.1325 19.96 85.1325 21.56C85.1325 24.24 84.8125 27.14 84.1725 30.26C83.5325 33.38 82.8725 36.46 82.1925 39.5C81.0725 43.58 79.7525 47.5 78.2325 51.26C76.7125 55.02 74.7925 58.84 72.4725 62.72C71.7525 63.8 70.9325 64.92 70.0125 66.08C69.1325 67.28 68.0925 68.36 66.8925 69.32C65.7325 70.28 64.3925 71.06 62.8725 71.66C61.3925 72.3 59.6925 72.62 57.7725 72.62C56.3725 72.62 55.4125 72.44 54.8925 72.08C54.4125 71.72 54.1725 71.44 54.1725 71.24C54.1725 71.12 54.2125 70.98 54.2925 70.82C55.4925 71.22 56.7725 71.42 58.1325 71.42C59.0925 71.42 60.1925 71.24 61.4325 70.88C62.7125 70.56 63.8525 70.06 64.8525 69.38C63.9325 69.86 62.8925 70.28 61.7325 70.64C60.6125 71 59.5925 71.18 58.6725 71.18C57.2325 71.18 55.8325 71 54.4725 70.64C54.4725 70.36 54.3525 70.1 54.1125 69.86C53.9125 69.62 53.6725 69.38 53.3925 69.14C53.1125 68.94 52.8525 68.72 52.6125 68.48C52.4125 68.24 52.3125 67.96 52.3125 67.64C52.3125 67.32 52.4125 67.08 52.6125 66.92C52.8125 66.76 53.0325 66.64 53.2725 66.56C53.5525 66.48 53.8325 66.4 54.1125 66.32C54.3925 66.28 54.6325 66.22 54.8325 66.14ZM74.9925 55.52C73.8325 57.6 72.6325 59.68 71.3925 61.76C70.1525 63.88 68.5925 65.88 66.7125 67.76C68.6325 65.96 70.2125 64 71.4525 61.88C72.7325 59.8 73.9125 57.68 74.9925 55.52ZM70.4925 40.46L72.4725 45.38L72.8325 45.02L70.4925 40.46ZM73.6725 44.54C73.8325 44.06 73.9725 43.58 74.0925 43.1L74.4525 41.66L74.0925 41.48L73.4325 43.82C73.5125 44.14 73.5925 44.38 73.6725 44.54ZM66.8925 42.38C66.4525 41.34 65.9325 40.32 65.3325 39.32C64.7725 38.28 64.1525 37.26 63.4725 36.26C64.0725 37.42 64.6925 38.58 65.3325 39.74C65.9725 40.82 66.5725 41.92 67.1325 43.04L66.8925 42.38ZM68.3325 35.54C68.3725 36.14 68.4525 36.64 68.5725 37.04C68.7325 37.44 68.8925 37.8 69.0525 38.12C69.2525 38.4 69.4325 38.68 69.5925 38.96C69.7925 39.2 69.9725 39.5 70.1325 39.86L70.0125 39.68L68.3325 35.54ZM72.9525 45.26L72.5325 45.74C72.6125 45.86 72.6925 45.98 72.7725 46.1C72.8525 46.18 72.9125 46.3 72.9525 46.46L73.2525 45.98L72.9525 45.26Z" fill="white"/>
</svg>
